<?xml version="1.0" encoding="utf-8"?>
<!-- Generator: Adobe Illustrator 16.0.0, SVG Export Plug-In . SVG Version: 6.00 Build 0)  -->
<!DOCTYPE svg PUBLIC "-//W3C//DTD SVG 1.1//EN" "http://www.w3.org/Graphics/SVG/1.1/DTD/svg11.dtd">
<svg version="1.1" id="Layer_1" xmlns="http://www.w3.org/2000/svg" xmlns:xlink="http://www.w3.org/1999/xlink" x="0px" y="0px"
	 width="18px" height="44px" viewBox="0 0 18 44" enable-background="new 0 0 18 44" xml:space="preserve">
<path fill="#F5F5F7" d="M17.815,30.01l-4.948-4.951c2.622-3.07,2.258-7.683-0.812-10.305c-3.069-2.622-7.683-2.259-10.304,0.811
	c-2.622,3.07-2.259,7.683,0.81,10.304c2.737,2.337,6.769,2.334,9.502-0.006l4.948,4.953c0.21,0.23,0.571,0.249,0.803,0.035
	c0.232-0.21,0.249-0.571,0.037-0.803C17.84,30.036,17.827,30.021,17.815,30.01L17.815,30.01z M1.182,20.328
	c0.005-3.396,2.761-6.146,6.158-6.141c3.395,0.004,6.144,2.762,6.141,6.157c-0.006,3.392-2.758,6.141-6.149,6.141
	C3.935,26.479,1.184,23.724,1.182,20.328z"/>
</svg>
